<svg xmlns="http://www.w3.org/2000/svg" width="1600" height="900" viewBox="0 0 1600 900">
  <defs>
    <linearGradient id="fog" x1="0" y1="0" x2="0" y2="1">
      <stop offset="0" stop-color="#cfcfcf" stop-opacity="0.25"/>
      <stop offset="0.55" stop-color="#d6d6d6" stop-opacity="0.70"/>
      <stop offset="1" stop-color="#d6d6d6" stop-opacity="0.95"/>
    </linearGradient>
    <linearGradient id="sky" x1="0" y1="0" x2="1" y2="0">
      <stop offset="0" stop-color="#bfbfbf"/>
      <stop offset="1" stop-color="#d3d3d3"/>
    </linearGradient>
    <filter id="grain">
      <feTurbulence type="fractalNoise" baseFrequency="0.9" numOctaves="2" stitchTiles="stitch"/>
      <feColorMatrix type="matrix" values="
        1 0 0 0 0
        0 1 0 0 0
        0 0 1 0 0
        0 0 0 0.10 0"/>
    </filter>
    <filter id="soften">
      <feGaussianBlur stdDeviation="0.7"/>
    </filter>
  </defs>

  <!-- Sky -->
  <rect width="1600" height="900" fill="url(#sky)"/>

  <!-- Distant haze -->
  <rect width="1600" height="900" fill="url(#fog)"/>

  <!-- City blocks (left) -->
  <g opacity="0.42" filter="url(#soften)">
    <rect x="70" y="520" width="170" height="300" fill="#6f6f6f"/>
    <rect x="240" y="560" width="140" height="260" fill="#7a7a7a"/>
    <rect x="370" y="500" width="230" height="320" fill="#686868"/>
    <rect x="610" y="610" width="120" height="210" fill="#7e7e7e"/>
    <rect x="720" y="560" width="190" height="260" fill="#6a6a6a"/>
    <rect x="900" y="580" width="160" height="240" fill="#7b7b7b"/>
    <rect x="1060" y="540" width="210" height="280" fill="#6f6f6f"/>
  </g>

  <!-- Foreground subtle skyline line -->
  <rect x="0" y="685" width="1600" height="2" fill="#5c5c5c" opacity="0.25"/>

  <!-- Spire building (right) -->
  <g transform="translate(1160,250)" opacity="0.78">
    <!-- Base tower -->
    <path d="M210 600
             C210 520 140 460 140 380
             C140 300 200 250 200 170
             C200 120 180 90 170 60
             C160 30 170 20 180 0
             C190 20 200 30 190 60
             C180 90 160 120 160 170
             C160 250 220 300 220 380
             C220 460 150 520 150 600 Z"
          fill="#5f5f5f"/>

    <!-- Art deco ribs -->
    <path d="M170 60 C185 95 190 125 190 160 C190 245 145 300 145 380 C145 455 190 510 190 600"
          stroke="#8a8a8a" stroke-width="10" fill="none" opacity="0.55"/>
    <path d="M200 60 C215 95 220 125 220 160 C220 245 175 300 175 380 C175 455 220 510 220 600"
          stroke="#8a8a8a" stroke-width="10" fill="none" opacity="0.55"/>

    <!-- Highlights -->
    <path d="M180 0 C190 20 190 35 186 60 C180 95 175 120 175 170 C175 250 230 300 230 380 C230 460 160 520 160 600"
          stroke="#b5b5b5" stroke-width="6" fill="none" opacity="0.25"/>
  </g>

  <!-- Grain overlay -->
  <rect width="1600" height="900" filter="url(#grain)" opacity="0.55"/>
</svg>

